# xmcd
#
# Track frame offsets:
#	150
#	13094
#	31575
#	48363
#	58874
#	68033
#	83886
#	102577
#	113929
#	123389
#	136570
#	147846
#	157813
#	176597
#	214721
#
# Disc length: 3074 seconds
#
# Revision: 1
# Processed by: cddbd v1.5.2PL0 Copyright (c) Steve Scherf et al.
# Submitted via: EZCDAudioConverter 2.1.7.1
#
DISCID=c60c000f
DTITLE=V/A - 1-2-3-4! The Roots Of The Ramones
DYEAR=2011
DGENRE=MOJO
TTITLE0=Walter Lure and The Ramones - Street Fighting Man
TTITLE1=T. Rex - Ballrooms Of Mars
TTITLE2=Ronnie Spector - She Talks To Rainbows
TTITLE3=Johnny Thunders and The Heartbreakers - I Love You
TTITLE4=The Trashmen - Bird Dance Beat
TTITLE5=The Dictators - Baby Let's Twist
TTITLE6=New York Dolls - Personality Crisis
TTITLE7=Bobby Freeman - Do You Want To Dance
TTITLE8=The Shangri-Las - Give Him A Great Big Kiss
TTITLE9=The Seeds - Can't Seem To Make You Mine
TTITLE10=The Vagrants - Oh Those Eyes
TTITLE11=Love - 7 And 7 Is
TTITLE12=Suicide - Rocket U.S.A.
TTITLE13=Wayne County - Max's Kansas City (By Jayne County Meets The She Wolve
TTITLE13=s)
TTITLE14=Television - Venus De Milo
EXTD=
EXTT0=
EXTT1=
EXTT2=
EXTT3=
EXTT4=
EXTT5=
EXTT6=
EXTT7=
EXTT8=
EXTT9=
EXTT10=
EXTT11=
EXTT12=
EXTT13=
EXTT14=
PLAYORDER=
